<svg width="512" height="512" viewBox="0 0 512 512" fill="none" xmlns="http://www.w3.org/2000/svg">
  <!-- Background Circle with Gradient -->
  <circle cx="256" cy="256" r="256" fill="url(#gradient1)"/>
  
  <!-- Outer Ring -->
  <circle cx="256" cy="256" r="220" fill="none" stroke="rgba(255,255,255,0.2)" stroke-width="2"/>
  
  <!-- Profile Avatar Circle -->
  <circle cx="256" cy="200" r="60" fill="url(#gradient2)" stroke="rgba(255,255,255,0.3)" stroke-width="3"/>
  
  <!-- Avatar Icon -->
  <circle cx="256" cy="185" r="20" fill="white" opacity="0.9"/>
  <path d="M220 240 C220 220, 240 210, 256 210 C272 210, 292 220, 292 240" fill="white" opacity="0.9"/>
  
  <!-- Social Media Icons Container -->
  <g transform="translate(256, 320)">
    <!-- LinkedIn Icon -->
    <g transform="translate(-90, -20)">
      <rect x="-15" y="-15" width="30" height="30" rx="6" fill="#0077B5"/>
      <rect x="-10" y="-5" width="4" height="12" fill="white"/>
      <rect x="-4" y="-1" width="4" height="8" fill="white"/>
      <circle cx="-8" cy="-9" r="2" fill="white"/>
      <path d="M0 -1 L0 7 M0 1 C2 -1, 6 -1, 6 3 L6 7" stroke="white" stroke-width="1.5" fill="none"/>
    </g>
    
    <!-- Facebook Icon -->
    <g transform="translate(-30, -20)">
      <rect x="-15" y="-15" width="30" height="30" rx="6" fill="#1877F2"/>
      <path d="M-2 -12 L-2 -6 L-6 -6 L-6 -2 L-2 -2 L-2 12 L2 12 L2 -2 L6 -2 L7 -6 L2 -6 L2 -8 C2 -9, 2.5 -9, 3 -9 L7 -9 L7 -12 L3 -12 C-1 -12, -2 -10, -2 -8" fill="white"/>
    </g>
    
    <!-- Instagram Icon -->
    <g transform="translate(30, -20)">
      <rect x="-15" y="-15" width="30" height="30" rx="8" fill="url(#instagramGradient)"/>
      <circle cx="0" cy="0" r="6" fill="none" stroke="white" stroke-width="2"/>
      <circle cx="6" cy="-6" r="1.5" fill="white"/>
      <rect x="-9" y="-9" width="18" height="18" rx="4" fill="none" stroke="white" stroke-width="2"/>
    </g>
    
    <!-- GitHub Icon -->
    <g transform="translate(90, -20)">
      <rect x="-15" y="-15" width="30" height="30" rx="6" fill="#333"/>
      <path d="M0 -10 C-5.5 -10, -10 -5.5, -10 0 C-10 4.3, -7.4 7.9, -3.7 8.9 C-3.2 9, -3 8.7, -3 8.4 L-3 7.6 C-3 7.6, -3.4 7.7, -4.1 7.7 C-5.1 7.7, -5.4 7, -5.4 7 C-5.9 5.8, -6.6 5.5, -6.6 5.5 C-7.6 4.9, -6.5 4.9, -6.5 4.9 C-5.4 5, -4.9 6, -4.9 6 C-4 7.5, -2.6 7, -3 6.8 C-2.9 6.2, -2.7 5.8, -2.4 5.5 C-4.2 5.3, -6.1 4.6, -6.1 1.6 C-6.1 0.6, -5.8 -0.2, -4.9 -0.8 C-5 -1.1, -5.4 -2.2, -4.8 -3.6 C-4.8 -3.6, -4 -3.9, -3 -3 C-2.5 -3.2, -1.3 -3.2, 0 -3.2 C1.3 -3.2, 2.5 -3.2, 3 -3 C4 -3.9, 4.8 -3.6, 4.8 -3.6 C5.4 -2.2, 5 -1.1, 4.9 -0.8 C5.8 -0.2, 6.1 0.6, 6.1 1.6 C6.1 4.6, 4.2 5.3, 2.4 5.5 C2.7 5.8, 2.9 6.2, 3 6.8 C2.6 7, 4 7.5, 4.9 6 C4.9 6, 5.4 5, 6.5 4.9 C6.5 4.9, 7.6 4.9, 6.6 5.5 C6.6 5.5, 5.9 5.8, 5.4 7 C5.4 7, 5.1 7.7, 4.1 7.7 C3.4 7.7, 3 7.6, 3 7.6 L3 8.4 C3 8.7, 3.2 9, 3.7 8.9 C7.4 7.9, 10 4.3, 10 0 C10 -5.5, 5.5 -10, 0 -10 Z" fill="white"/>
    </g>
  </g>
  
  <!-- Connecting Lines -->
  <g stroke="rgba(255,255,255,0.3)" stroke-width="2" fill="none">
    <line x1="196" y1="240" x2="166" y2="280"/>
    <line x1="226" y1="250" x2="226" y2="280"/>
    <line x1="286" y1="250" x2="286" y2="280"/>
    <line x1="316" y1="240" x2="346" y2="280"/>
  </g>
  
  <!-- Sparkle Effects -->
  <g fill="rgba(255,255,255,0.6)">
    <circle cx="150" cy="150" r="2"/>
    <circle cx="380" cy="180" r="1.5"/>
    <circle cx="120" cy="300" r="1"/>
    <circle cx="400" cy="320" r="2"/>
    <circle cx="180" cy="380" r="1.5"/>
    <circle cx="350" cy="120" r="1"/>
  </g>
  
  <!-- Star Sparkles -->
  <g fill="rgba(255,255,255,0.8)">
    <path d="M100 200 L102 206 L108 206 L103 210 L105 216 L100 212 L95 216 L97 210 L92 206 L98 206 Z"/>
    <path d="M420 250 L421 254 L425 254 L422 256 L423 260 L420 258 L417 260 L418 256 L415 254 L419 254 Z"/>
  </g>
  
  <!-- Gradients -->
  <defs>
    <linearGradient id="gradient1" x1="0%" y1="0%" x2="100%" y2="100%">
      <stop offset="0%" style="stop-color:#667eea;stop-opacity:1" />
      <stop offset="50%" style="stop-color:#764ba2;stop-opacity:1" />
      <stop offset="100%" style="stop-color:#f093fb;stop-opacity:1" />
    </linearGradient>
    
    <linearGradient id="gradient2" x1="0%" y1="0%" x2="100%" y2="100%">
      <stop offset="0%" style="stop-color:#4facfe;stop-opacity:1" />
      <stop offset="100%" style="stop-color:#00f2fe;stop-opacity:1" />
    </linearGradient>
    
    <linearGradient id="instagramGradient" x1="0%" y1="0%" x2="100%" y2="100%">
      <stop offset="0%" style="stop-color:#f09433;stop-opacity:1" />
      <stop offset="25%" style="stop-color:#e6683c;stop-opacity:1" />
      <stop offset="50%" style="stop-color:#dc2743;stop-opacity:1" />
      <stop offset="75%" style="stop-color:#cc2366;stop-opacity:1" />
      <stop offset="100%" style="stop-color:#bc1888;stop-opacity:1" />
    </linearGradient>
  </defs>
</svg>